<?xml version="1.0" encoding="UTF-8"?>
<svg id="_レイヤー_1" data-name="レイヤー 1" xmlns="http://www.w3.org/2000/svg" viewBox="0 0 497.1 113.72">
  <defs>
    <style>
      .cls-1 {
        fill: #231815;
      }
    </style>
  </defs>
  <path class="cls-1" d="M46.8,31.37h9.07v20.59h23.83v-20.59h9.07v50.98h-9.07v-22.61h-23.83v22.61h-9.07V31.37Z"/>
  <path class="cls-1" d="M97.56,56.72c0-4.08.68-7.76,2.05-11.05,1.37-3.29,3.26-6.08,5.69-8.39,2.42-2.3,5.3-4.08,8.64-5.33,3.34-1.25,6.97-1.87,10.91-1.87s7.66.62,11.02,1.87c3.36,1.25,6.26,3.02,8.71,5.33,2.45,2.3,4.36,5.1,5.72,8.39,1.37,3.29,2.05,6.97,2.05,11.05s-.68,7.62-2.05,10.91c-1.37,3.29-3.28,6.12-5.72,8.5-2.45,2.38-5.35,4.22-8.71,5.54-3.36,1.32-7.03,1.98-11.02,1.98s-7.57-.66-10.91-1.98c-3.34-1.32-6.22-3.17-8.64-5.54-2.42-2.38-4.32-5.21-5.69-8.5-1.37-3.29-2.05-6.92-2.05-10.91ZM107.43,56.72c0,2.74.42,5.24,1.26,7.52.84,2.28,2.04,4.26,3.6,5.94,1.56,1.68,3.41,2.99,5.54,3.92s4.5,1.4,7.09,1.4,4.97-.47,7.13-1.4,4.02-2.24,5.58-3.92c1.56-1.68,2.76-3.66,3.6-5.94.84-2.28,1.26-4.79,1.26-7.52s-.42-5.09-1.26-7.34c-.84-2.26-2.03-4.22-3.56-5.9-1.54-1.68-3.38-3-5.54-3.96-2.16-.96-4.56-1.44-7.2-1.44s-5.03.48-7.16,1.44c-2.14.96-3.97,2.28-5.51,3.96-1.54,1.68-2.73,3.65-3.56,5.9-.84,2.26-1.26,4.7-1.26,7.34Z"/>
  <path class="cls-1" d="M155.95,31.37h9.94l9.86,37.44h.14l11.23-37.44h9.36l11.02,37.44h.14l10.08-37.44h9.65l-14.9,50.98h-8.78l-11.95-38.23h-.14l-11.95,38.23h-8.78l-14.9-50.98Z"/>
  <path class="cls-1" d="M233.43,31.37h18.07c3.31,0,6.65.43,10.01,1.3,3.36.86,6.38,2.29,9.07,4.28,2.69,1.99,4.87,4.61,6.55,7.85,1.68,3.24,2.52,7.26,2.52,12.06,0,4.46-.84,8.3-2.52,11.52-1.68,3.22-3.86,5.86-6.55,7.92-2.69,2.06-5.71,3.59-9.07,4.57-3.36.98-6.7,1.48-10.01,1.48h-18.07V31.37ZM250.06,74.43c2.35,0,4.7-.28,7.06-.83,2.35-.55,4.48-1.49,6.37-2.81,1.9-1.32,3.44-3.11,4.64-5.36,1.2-2.26,1.8-5.11,1.8-8.57,0-3.65-.6-6.62-1.8-8.93-1.2-2.3-2.75-4.1-4.64-5.4-1.9-1.3-4.02-2.18-6.37-2.66-2.35-.48-4.7-.72-7.06-.72h-7.56v35.28h7.56Z"/>
  <path class="cls-1" d="M329.04,63.63c0,3.07-.53,5.84-1.58,8.32-1.06,2.47-2.5,4.57-4.32,6.3-1.83,1.73-3.99,3.06-6.48,4-2.5.94-5.21,1.4-8.14,1.4s-5.64-.47-8.14-1.4c-2.5-.94-4.67-2.27-6.52-4s-3.29-3.83-4.32-6.3c-1.03-2.47-1.55-5.24-1.55-8.32V31.37h9.07v31.9c0,1.49.19,2.96.58,4.43.38,1.46,1.02,2.77,1.91,3.92.89,1.15,2.06,2.09,3.53,2.81,1.46.72,3.28,1.08,5.44,1.08s3.97-.36,5.44-1.08c1.46-.72,2.64-1.66,3.53-2.81.89-1.15,1.52-2.46,1.91-3.92.38-1.46.58-2.94.58-4.43v-31.9h9.07v32.26Z"/>
  <path class="cls-1" d="M338.84,31.37h12.02l23.69,38.16h.14V31.37h9.07v50.98h-11.52l-24.19-39.38h-.14v39.38h-9.07V31.37Z"/>
  <path class="cls-1" d="M393,31.37h9.07v50.98h-9.07V31.37Z"/>
  <path class="cls-1" d="M425.6,39.29h-15.62v-7.92h40.32v7.92h-15.62v43.06h-9.07v-43.06Z"/>
</svg>